# Blender v2.78 (sub 0) OBJ File: ''
# www.blender.org
mtllib Japan Door Paper Fixed.mtl
o rdmobj00.003
v 0.999999 29.999958 55.394058
v 1.000001 -30.000042 55.394028
v 0.999999 29.999989 -36.605949
v 1.000001 -30.000011 -36.605965
v 2.000001 -30.000010 -40.605968
v 2.000001 -30.000011 -36.605965
v 2.000001 -32.000008 -40.605968
v 1.000001 -30.000042 55.394028
v 2.000001 -30.000042 55.394028
v 1.000001 -30.000011 -36.605965
v 2.000001 -32.000038 57.394028
v 0.000001 -32.000008 -40.605968
v 0.000001 -32.000038 57.394028
v 1.000001 -30.000000 -68.605965
v 0.999999 30.000000 -68.605949
v 1.000001 -30.000010 -40.605968
v 0.999999 29.999990 -40.605946
v 1.000001 -30.000010 -40.605968
v 0.999999 29.999990 -40.605946
v 2.000001 -30.000010 -40.605968
v 1.999999 29.999990 -40.605946
v 1.999999 29.999989 -36.605949
v 2.000001 -30.000011 -36.605965
v 1.000001 -30.000011 -36.605965
v 0.999999 29.999989 -36.605949
v 0.999999 29.999990 -40.605946
v 0.999999 30.000000 -68.605949
v 1.999999 29.999990 -40.605946
v 1.999999 30.000000 -68.605949
v 1.999999 31.999990 -40.605946
v 1.999999 32.000000 -70.605949
v -0.000001 32.000000 -70.605949
v -0.000001 31.999990 -40.605946
v 0.000001 -32.000000 -70.605965
v -0.000001 32.000000 -70.605949
v 2.000001 -32.000000 -70.605965
v 1.999999 32.000000 -70.605949
v 2.000001 -30.000000 -68.605965
v 1.999999 30.000000 -68.605949
v 1.000001 -30.000000 -68.605965
v 0.999999 30.000000 -68.605949
v 1.000001 -15.827341 55.394043
v 1.000001 -15.827311 -36.605965
v 2.000001 -15.827341 55.394043
v 2.000001 -15.827311 -36.605965
v 2.000001 -14.172741 55.394043
v 2.000001 -14.172710 -36.605965
v 1.000001 -14.172741 55.394043
v 1.000001 -14.172710 -36.605965
v 1.000000 0.827289 -36.605957
v 1.000000 0.827260 55.394043
v 2.000000 0.827289 -36.605957
v 2.000000 0.827260 55.394043
v 2.000000 -0.827311 -36.605957
v 2.000000 -0.827341 55.394043
v 1.000000 -0.827311 -36.605957
v 1.000000 -0.827341 55.394043
v 0.999999 15.827290 -36.605949
v 0.999999 15.827259 55.394043
v 1.999999 15.827290 -36.605949
v 1.999999 15.827259 55.394043
v 1.999999 14.172689 -36.605949
v 1.999999 14.172659 55.394043
v 0.999999 14.172689 -36.605949
v 0.999999 14.172659 55.394043
v 0.999999 29.999966 37.685059
v 1.000001 -30.000034 37.685028
v 1.499999 29.999966 37.685059
v 1.500001 -30.000034 37.685028
v 1.499999 29.999966 36.303055
v 1.500001 -30.000034 36.303024
v 0.999999 29.999966 36.303055
v 1.000001 -30.000034 36.303024
v 0.999999 29.999971 19.284760
v 1.000001 -30.000029 19.284729
v 1.499999 29.999971 19.284760
v 1.500001 -30.000029 19.284729
v 1.499999 29.999971 17.903358
v 1.500001 -30.000029 17.903328
v 0.999999 29.999971 17.903358
v 1.000001 -30.000029 17.903328
v 1.000001 -30.000015 -18.896664
v 0.999999 29.999985 -18.896648
v 1.500001 -30.000015 -18.896664
v 1.499999 29.999985 -18.896648
v 1.500001 -30.000017 -17.515266
v 1.499999 29.999983 -17.515251
v 1.000001 -30.000017 -17.515266
v 0.999999 29.999983 -17.515251
v 1.000001 -30.000023 -0.496674
v 0.999999 29.999977 -0.496643
v 1.500001 -30.000023 -0.496674
v 1.499999 29.999977 -0.496643
v 1.500001 -30.000023 0.884727
v 1.499999 29.999977 0.884758
v 1.000001 -30.000023 0.884727
v 0.999999 29.999977 0.884758
v 1.999999 29.999990 -40.605946
v 1.999999 31.999990 -40.605946
v 1.999999 29.999989 -36.605949
v 0.999999 29.999989 -36.605949
v 0.999999 29.999958 55.394058
v 1.999999 29.999958 55.394058
v 1.999999 31.999958 57.394051
v -0.000001 31.999958 57.394051
v -0.000001 31.999990 -40.605946
v 0.000001 -32.000038 57.394028
v 2.000001 -32.000038 57.394028
v -0.000001 31.999958 57.394051
v 1.999999 31.999958 57.394051
v 1.999999 29.999958 55.394058
v 2.000001 -30.000042 55.394028
v 0.999999 29.999958 55.394058
v 1.000001 -30.000042 55.394028
v 0.000001 -32.000000 -70.605965
v 2.000001 -32.000000 -70.605965
v 0.000001 -32.000008 -40.605968
v 2.000001 -32.000008 -40.605968
v 2.000001 -30.000000 -68.605965
v 2.000001 -30.000010 -40.605968
v 1.000001 -30.000010 -40.605968
v 1.000001 -30.000000 -68.605965
vt 0.4968 -0.0023
vt 0.0050 -0.0023
vt 0.4968 -0.7564
vt 0.0050 -0.7564
vt 0.9345 -0.9914
vt 0.9345 -0.9611
vt 0.9193 -0.9914
vt 0.9421 -0.2638
vt 0.9345 -0.2638
vt 0.9421 -0.9611
vt 0.9193 -0.2486
vt 0.9042 -0.9914
vt 0.9042 -0.2486
vt 0.5055 -0.2303
vt 0.9945 -0.2303
vt 0.5055 -0.0021
vt 0.9945 -0.0021
vt 0.8353 -0.7674
vt 0.8353 -0.2644
vt 0.8269 -0.7674
vt 0.8269 -0.2644
vt 0.7934 -0.2644
vt 0.7934 -0.7674
vt 0.7850 -0.7674
vt 0.7850 -0.2644
vt 0.7169 -0.5094
vt 0.7169 -0.2746
vt 0.7085 -0.5094
vt 0.7085 -0.2746
vt 0.6918 -0.5094
vt 0.6918 -0.2579
vt 0.6750 -0.2579
vt 0.6750 -0.5094
vt 0.7330 -0.2457
vt 0.7330 -0.7822
vt 0.7497 -0.2457
vt 0.7497 -0.7822
vt 0.7665 -0.2625
vt 0.7665 -0.7654
vt 0.7749 -0.2625
vt 0.7749 -0.7654
vt 0.8905 -0.8693
vt 0.0071 -0.8693
vt 0.8905 -0.8789
vt 0.0071 -0.8789
vt 0.8905 -0.8948
vt 0.0071 -0.8948
vt 0.8905 -0.9044
vt 0.0071 -0.9044
vt 0.0074 -0.9490
vt 0.8908 -0.9490
vt 0.0074 -0.9394
vt 0.8908 -0.9394
vt 0.0074 -0.9235
vt 0.8908 -0.9235
vt 0.0074 -0.9139
vt 0.8908 -0.9139
vt 0.0071 -0.9938
vt 0.8905 -0.9938
vt 0.0071 -0.9842
vt 0.8905 -0.9842
vt 0.0071 -0.9683
vt 0.8905 -0.9683
vt 0.0071 -0.9587
vt 0.8905 -0.9587
vt 0.0066 -0.8562
vt 0.5827 -0.8562
vt 0.0066 -0.8514
vt 0.5827 -0.8514
vt 0.0066 -0.8381
vt 0.5827 -0.8381
vt 0.0066 -0.8333
vt 0.5827 -0.8333
vt 0.0048 -0.8166
vt 0.5810 -0.8166
vt 0.0048 -0.8118
vt 0.5810 -0.8118
vt 0.0048 -0.7985
vt 0.5810 -0.7985
vt 0.0048 -0.7937
vt 0.5810 -0.7937
vt 0.6533 -0.8269
vt 0.6533 -0.2508
vt 0.6485 -0.8269
vt 0.6485 -0.2508
vt 0.6353 -0.8269
vt 0.6353 -0.2508
vt 0.6305 -0.8269
vt 0.6305 -0.2508
vt 0.6148 -0.8264
vt 0.6148 -0.2503
vt 0.6100 -0.8264
vt 0.6100 -0.2503
vt 0.5967 -0.8264
vt 0.5967 -0.2503
vt 0.5919 -0.8264
vt 0.5919 -0.2503
vt 0.9634 -0.9905
vt 0.9786 -0.9905
vt 0.9634 -0.9602
vt 0.9559 -0.9602
vt 0.9559 -0.2629
vt 0.9634 -0.2629
vt 0.9786 -0.2478
vt 0.9938 -0.2478
vt 0.9938 -0.9905
vt 0.8859 -0.2419
vt 0.8691 -0.2419
vt 0.8859 -0.7784
vt 0.8691 -0.7784
vt 0.8523 -0.7617
vt 0.8523 -0.2587
vt 0.8440 -0.7617
vt 0.8440 -0.2587
vt 0.7182 -0.5201
vt 0.7015 -0.5201
vt 0.7182 -0.7716
vt 0.7015 -0.7716
vt 0.6847 -0.5368
vt 0.6847 -0.7716
vt 0.6763 -0.7716
vt 0.6763 -0.5368
vn 0.5774 -0.5773 -0.5774
vn 0.5774 0.5774 -0.5773
vn 0.5774 -0.5774 0.5773
vn 0.5774 0.5773 0.5774
vn 0.9045 0.3015 -0.3015
vn 0.9045 0.3015 0.3015
vn 0.7071 -0.7071 -0.0000
vn 0.5773 0.5774 -0.5774
vn 0.5774 0.5774 0.5773
vn 0.5773 -0.5774 0.5773
vn 0.0000 -1.0000 -0.0000
vn 0.0003 -0.7071 0.7071
vn 0.5774 0.5773 -0.5774
vn 0.5773 -0.5774 -0.5774
vn 0.9046 0.3014 -0.3015
vn 0.9046 -0.3014 -0.3015
vn 0.9046 -0.3013 0.3014
vn 0.9046 0.3014 0.3015
vn 0.5773 0.5774 0.5774
vn 0.5774 -0.5773 0.5774
vn 0.5774 -0.5774 -0.5773
vn 0.5773 -0.5774 0.5774
vn 0.9046 -0.3014 -0.3014
vn 0.9045 -0.3015 0.3015
vn 0.7071 0.7071 0.0000
vn 0.5773 0.5773 -0.5774
vn 0.0002 0.7071 -0.7071
vn 0.0000 1.0000 0.0000
vn -0.0004 -0.7071 -0.7071
vn 0.0000 0.7071 -0.7071
vn 0.5773 -0.5774 -0.5773
vn 0.0000 -0.0000 1.0000
vn 0.7071 -0.0000 0.7071
vn 0.7071 0.0000 -0.7071
vn 0.0000 0.0000 -1.0000
vn 0.9045 -0.3015 -0.3015
vn 0.5773 0.5774 0.5773
vn 0.0000 0.7071 0.7071
vn 0.0000 -0.7071 0.7071
vn 0.5773 -0.5773 0.5774
vn 0.0003 0.7071 0.7071
vn 0.0000 -0.7071 -0.7071
usemtl shoji_wall_screen01.001
s 1
f 1/1/1 2/2/2 3/3/3
f 4/4/4 3/3/3 2/2/2
f 5/5/5 6/6/6 7/7/7
f 8/8/8 9/9/5 10/10/9
f 6/6/6 10/10/9 9/9/5
f 9/9/5 11/11/10 6/6/6
f 7/7/7 6/6/6 11/11/10
f 7/7/7 11/11/10 12/12/11
f 13/13/12 12/12/11 11/11/10
f 14/14/4 15/15/3 16/16/2
f 17/17/1 16/16/2 15/15/3
f 18/18/13 19/19/14 20/20/15
f 21/21/16 20/20/15 19/19/14
f 21/21/16 22/22/17 20/20/15
f 23/23/18 20/20/15 22/22/17
f 23/23/18 22/22/17 24/24/19
f 25/25/20 24/24/19 22/22/17
f 26/26/21 27/27/22 28/28/23
f 29/29/24 28/28/23 27/27/22
f 28/28/23 29/29/24 30/30/25
f 31/31/26 30/30/25 29/29/24
f 31/31/26 32/32/27 30/30/25
f 33/33/28 30/30/25 32/32/27
f 34/34/29 35/35/30 36/36/31
f 37/37/26 36/36/31 35/35/30
f 36/36/31 37/37/26 38/38/6
f 39/39/24 38/38/6 37/37/26
f 38/38/6 39/39/24 40/40/19
f 41/41/20 40/40/19 39/39/24
f 42/42/11 43/43/11 44/44/7
f 45/45/7 44/44/7 43/43/11
f 44/44/7 45/45/7 46/46/25
f 47/47/25 46/46/25 45/45/7
f 46/46/25 47/47/25 48/48/28
f 49/49/28 48/48/28 47/47/25
f 50/50/28 51/51/28 52/52/25
f 53/53/25 52/52/25 51/51/28
f 52/52/25 53/53/25 54/54/7
f 55/55/7 54/54/7 53/53/25
f 54/54/7 55/55/7 56/56/11
f 57/57/11 56/56/11 55/55/7
f 58/58/28 59/59/28 60/60/25
f 61/61/25 60/60/25 59/59/28
f 60/60/25 61/61/25 62/62/7
f 63/63/7 62/62/7 61/61/25
f 62/62/7 63/63/7 64/64/11
f 65/65/11 64/64/11 63/63/7
f 66/66/32 67/67/32 68/68/33
f 69/69/33 68/68/33 67/67/32
f 68/68/33 69/69/33 70/70/34
f 71/71/34 70/70/34 69/69/33
f 70/70/34 71/71/34 72/72/35
f 73/73/35 72/72/35 71/71/34
f 74/74/32 75/75/32 76/76/33
f 77/77/33 76/76/33 75/75/32
f 76/76/33 77/77/33 78/78/34
f 79/79/34 78/78/34 77/77/33
f 78/78/34 79/79/34 80/80/35
f 81/81/35 80/80/35 79/79/34
f 82/82/35 83/83/35 84/84/34
f 85/85/34 84/84/34 83/83/35
f 84/84/34 85/85/34 86/86/33
f 87/87/33 86/86/33 85/85/34
f 86/86/33 87/87/33 88/88/32
f 89/89/32 88/88/32 87/87/33
f 90/90/35 91/91/35 92/92/34
f 93/93/34 92/92/34 91/91/35
f 92/92/34 93/93/34 94/94/33
f 95/95/33 94/94/33 93/93/34
f 94/94/33 95/95/33 96/96/32
f 97/97/32 96/96/32 95/95/33
f 98/98/36 99/99/25 100/100/24
f 101/101/22 100/100/24 102/102/21
f 103/103/36 102/102/21 100/100/24
f 103/103/36 100/100/24 104/104/37
f 99/99/25 104/104/37 100/100/24
f 104/104/37 99/99/25 105/105/38
f 106/106/28 105/105/38 99/99/25
f 107/107/39 108/108/40 109/109/41
f 110/110/37 109/109/41 108/108/40
f 110/110/37 108/108/40 111/111/36
f 112/112/5 111/111/36 108/108/40
f 111/111/36 112/112/5 113/113/14
f 114/114/13 113/113/14 112/112/5
f 115/115/42 116/116/14 117/117/11
f 118/118/7 117/117/11 116/116/14
f 116/116/14 119/119/6 118/118/7
f 120/120/5 118/118/7 119/119/6
f 120/120/5 119/119/6 121/121/8
f 122/122/9 121/121/8 119/119/6
