# Noesis .obj export.
#
mtllib unused.mtl
g
v  136.213165 4.126742 191.150375
v  136.213165 4.126742 164.122437
v  136.213165 57.158138 163.995590
v  4.827545 3.893047 164.122437
v  4.827545 3.893047 190.471573
v  -3.172455 3.893047 164.122437
v  -3.172455 3.893047 190.471573
v  -3.172455 3.893047 164.122437
v  -3.172455 3.893047 190.471573
v  -3.172456 11.893047 164.122437
v  -3.172456 11.893047 190.471573
v  -3.172456 11.893047 164.122437
v  -3.172456 11.893047 190.471573
v  4.827545 11.893047 164.122437
v  4.827545 11.893047 190.471573
v  4.827545 11.893047 164.122437
v  4.827545 11.893047 190.471573
v  4.827545 3.893047 164.122437
v  4.827545 3.893047 190.471573
v  134.924545 6.035761 164.122437
v  134.924545 6.035757 189.337967
v  3.778671 6.035751 164.122437
v  3.778671 6.035751 189.337967
v  3.778673 8.529789 164.122437
v  3.778673 8.529789 189.337967
v  134.924545 8.529795 164.122437
v  134.924545 8.529795 189.337967
v  -126.617294 11.806440 191.150375
v  -126.617294 4.086752 191.150375
v  -126.617294 11.806440 164.122437
v  -126.617294 4.086752 164.122437
v  -134.617294 11.806440 191.150375
v  -126.617294 11.806440 191.150375
v  -134.617294 11.806440 164.122437
v  -126.617294 11.806440 164.122437
v  -134.207367 4.086752 164.122437
v  -126.617294 4.086752 164.122437
v  -134.207367 4.086752 191.150375
v  -126.617294 4.086752 191.150375
v  126.617294 4.086764 164.122437
v  126.617294 4.086764 191.150375
v  126.617294 11.806452 164.122437
v  126.617294 11.806452 191.150375
v  134.207367 4.086764 164.122437
v  134.207367 4.086764 191.150375
v  126.617294 4.086764 164.122437
v  126.617294 4.086764 191.150375
v  134.617294 11.806452 191.150375
v  134.617294 11.806452 164.122437
v  126.617294 11.806452 191.150375
v  126.617294 11.806452 164.122437
v  133.494080 4.126742 191.150375
v  133.494080 57.158138 163.995590
v  133.494080 4.126742 164.122437
v  -133.494080 57.158123 163.995590
v  -133.494080 4.126730 191.150375
v  -133.494080 4.126730 164.122437
v  -136.213165 4.126730 164.122437
v  -136.213165 4.126730 191.150375
v  -136.213165 57.158123 163.995590

vt  0.835246 -0.358384 0.000000
vt  0.835246 -0.419913 0.000000
vt  0.966305 -0.420201 0.000000
vt  0.040348 -0.410410 0.000000
vt  0.040348 -0.363518 0.000000
vt  0.056462 -0.410410 0.000000
vt  0.056462 -0.363518 0.000000
vt  0.033309 -0.409801 0.000000
vt  0.033309 -0.362909 0.000000
vt  0.017195 -0.409801 0.000000
vt  0.017195 -0.362909 0.000000
vt  0.295346 -0.409617 0.000000
vt  0.295346 -0.362725 0.000000
vt  0.279231 -0.409617 0.000000
vt  0.279231 -0.362725 0.000000
vt  0.077074 -0.411180 0.000000
vt  0.077074 -0.364550 0.000000
vt  0.061691 -0.411180 0.000000
vt  0.061691 -0.364550 0.000000
vt  0.818350 -0.416587 0.000000
vt  0.818350 -0.358799 0.000000
vt  0.517877 -0.416587 0.000000
vt  0.517877 -0.358799 0.000000
vt  0.517877 -0.416587 0.000000
vt  0.517877 -0.358799 0.000000
vt  0.818350 -0.416587 0.000000
vt  0.818350 -0.358799 0.000000
vt  0.196908 -0.362252 0.000000
vt  0.213022 -0.362252 0.000000
vt  0.196908 -0.410182 0.000000
vt  0.213022 -0.410182 0.000000
vt  0.083073 -0.364546 0.000000
vt  0.099187 -0.364546 0.000000
vt  0.083073 -0.412476 0.000000
vt  0.099187 -0.412476 0.000000
vt  0.217111 -0.410326 0.000000
vt  0.233990 -0.410326 0.000000
vt  0.217111 -0.362445 0.000000
vt  0.233990 -0.362445 0.000000
vt  0.273911 -0.410056 0.000000
vt  0.273911 -0.362127 0.000000
vt  0.257796 -0.410056 0.000000
vt  0.257796 -0.362127 0.000000
vt  0.296660 -0.410216 0.000000
vt  0.296660 -0.362385 0.000000
vt  0.277578 -0.410216 0.000000
vt  0.277578 -0.362385 0.000000
vt  0.237404 -0.362127 0.000000
vt  0.237404 -0.410056 0.000000
vt  0.251591 -0.362127 0.000000
vt  0.251591 -0.410056 0.000000
vt  0.835246 -0.358384 0.000000
vt  0.966305 -0.420201 0.000000
vt  0.835246 -0.419913 0.000000
vt  0.966305 -0.420201 0.000000
vt  0.835246 -0.358384 0.000000
vt  0.835246 -0.419913 0.000000
vt  0.835246 -0.419913 0.000000
vt  0.835246 -0.358384 0.000000
vt  0.966305 -0.420201 0.000000

vn  1.000000 0.000000 0.000000
vn  1.000000 0.000000 0.000000
vn  1.000000 0.000000 0.000000
vn  0.000000 -1.000000 0.000000
vn  0.000000 -1.000000 0.000000
vn  0.000000 -1.000000 0.000000
vn  0.000000 -1.000000 0.000000
vn  -1.000000 -0.000000 0.000000
vn  -1.000000 -0.000000 0.000000
vn  -1.000000 -0.000000 0.000000
vn  -1.000000 -0.000000 0.000000
vn  -0.000000 1.000000 0.000000
vn  -0.000000 1.000000 0.000000
vn  -0.000000 1.000000 0.000000
vn  -0.000000 1.000000 0.000000
vn  1.000000 0.000000 0.000000
vn  1.000000 0.000000 0.000000
vn  1.000000 0.000000 0.000000
vn  1.000000 0.000000 0.000000
vn  0.000000 -1.000000 0.000000
vn  0.000000 -1.000000 0.000000
vn  0.000000 -1.000000 0.000000
vn  0.000000 -1.000000 0.000000
vn  -0.000000 1.000000 0.000000
vn  -0.000000 1.000000 0.000000
vn  -0.000000 1.000000 0.000000
vn  -0.000000 1.000000 0.000000
vn  1.000000 0.000000 0.000000
vn  1.000000 0.000000 0.000000
vn  1.000000 0.000000 0.000000
vn  1.000000 0.000000 0.000000
vn  -0.000000 1.000000 0.000000
vn  -0.000000 1.000000 0.000000
vn  -0.000000 1.000000 0.000000
vn  -0.000000 1.000000 0.000000
vn  0.000000 -1.000000 0.000000
vn  0.000000 -1.000000 0.000000
vn  0.000000 -1.000000 0.000000
vn  0.000000 -1.000000 0.000000
vn  -1.000000 -0.000000 0.000000
vn  -1.000000 -0.000000 0.000000
vn  -1.000000 -0.000000 0.000000
vn  -1.000000 -0.000000 0.000000
vn  0.000000 -1.000000 0.000000
vn  0.000000 -1.000000 0.000000
vn  0.000000 -1.000000 0.000000
vn  0.000000 -1.000000 0.000000
vn  -0.000000 1.000000 0.000000
vn  -0.000000 1.000000 0.000000
vn  -0.000000 1.000000 0.000000
vn  -0.000000 1.000000 0.000000
vn  -1.000000 -0.000000 0.000000
vn  -1.000000 -0.000000 0.000000
vn  -1.000000 -0.000000 0.000000
vn  1.000000 0.000000 0.000000
vn  1.000000 0.000000 0.000000
vn  1.000000 0.000000 0.000000
vn  -1.000000 -0.000000 0.000000
vn  -1.000000 -0.000000 0.000000
vn  -1.000000 -0.000000 0.000000

g rdmobj00
usemtl japanese_upgrade01
f  1/1/1 2/2/2 3/3/3
f  4/4/4 5/5/5 6/6/6
f  7/7/7 6/6/6 5/5/5
f  8/8/8 9/9/9 10/10/10
f  11/11/11 10/10/10 9/9/9
f  12/12/12 13/13/13 14/14/14
f  15/15/15 14/14/14 13/13/13
f  16/16/16 17/17/17 18/18/18
f  19/19/19 18/18/18 17/17/17
f  20/20/20 21/21/21 22/22/22
f  23/23/23 22/22/22 21/21/21
f  24/24/24 25/25/25 26/26/26
f  27/27/27 26/26/26 25/25/25
f  28/28/28 29/29/29 30/30/30
f  31/31/31 30/30/30 29/29/29
f  32/32/32 33/33/33 34/34/34
f  35/35/35 34/34/34 33/33/33
f  36/36/36 37/37/37 38/38/38
f  39/39/39 38/38/38 37/37/37
f  40/40/40 41/41/41 42/42/42
f  43/43/43 42/42/42 41/41/41
f  44/44/44 45/45/45 46/46/46
f  47/47/47 46/46/46 45/45/45
f  48/48/48 49/49/49 50/50/50
f  51/51/51 50/50/50 49/49/49
f  52/52/52 53/53/53 54/54/54
f  55/55/55 56/56/56 57/57/57
f  58/58/58 59/59/59 60/60/60

g
