# Blender v2.78 (sub 0) OBJ File: ''
# www.blender.org
mtllib Japan Wall Paper Fixed.mtl
o rdmobj00
v 0.999997 61.999981 55.419136
v 1.000000 1.999979 55.419128
v 0.999997 61.999996 -36.580860
v 1.000000 1.999995 -36.580872
v 2.000003 -62.000004 -40.580879
v 2.000003 -62.000004 -36.580883
v 2.000003 -64.000008 -40.580879
v 0.000003 -64.000023 57.419121
v 0.000003 -64.000008 -40.580879
v 2.000003 -64.000023 57.419121
v 2.000003 -62.000019 55.419121
v 1.000003 -62.000004 -36.580883
v 1.000003 -62.000019 55.419121
v 1.000000 1.999979 55.419128
v 2.000000 1.999979 55.419128
v 1.000000 1.999995 -36.580872
v 2.000000 1.999995 -36.580872
v 2.000000 -0.000021 57.419128
v 2.000000 -0.000005 -40.580872
v 2.000000 1.999995 -40.580872
v 1.999997 61.999996 -40.580864
v 1.999997 63.999996 -40.580864
v 1.999997 61.999996 -36.580860
v 0.999997 61.999996 -36.580860
v 0.999997 61.999981 55.419136
v 1.999997 61.999981 55.419136
v 1.999997 63.999981 57.419144
v -0.000003 63.999981 57.419144
v -0.000003 63.999996 -40.580864
v 1.000000 -2.000005 -36.580872
v 2.000000 -2.000005 -36.580872
v 1.000000 -2.000021 55.419128
v 2.000000 -2.000021 55.419128
v 2.000000 -0.000021 57.419128
v 2.000000 -0.000005 -40.580872
v 2.000000 -2.000005 -40.580872
v 1.000000 2.000000 -68.580872
v 0.999997 62.000000 -68.580864
v 1.000000 1.999995 -40.580872
v 0.999997 61.999996 -40.580864
v 1.000000 -2.000021 55.419128
v 1.000003 -62.000019 55.419121
v 1.000000 -2.000005 -36.580872
v 1.000003 -62.000004 -36.580883
v 1.000003 -62.000000 -68.580879
v 1.000000 -2.000000 -68.580872
v 1.000003 -62.000004 -40.580879
v 1.000000 -2.000005 -40.580872
v 1.000003 -62.000011 -0.471581
v 1.000000 -2.000011 -0.471573
v 1.500003 -62.000011 -0.471581
v 1.500000 -2.000011 -0.471573
v 1.500003 -62.000011 0.909821
v 1.500000 -2.000012 0.909828
v 1.000003 -62.000011 0.909821
v 1.000000 -2.000012 0.909828
v 1.000000 -2.000005 -36.580872
v 1.000003 -62.000004 -36.580883
v 2.000000 -2.000005 -36.580872
v 2.000003 -62.000004 -36.580883
v 2.000003 -62.000004 -40.580879
v 2.000000 -2.000005 -40.580872
v 1.000000 -2.000005 -40.580872
v 1.000003 -62.000004 -40.580879
v 1.000000 -2.000005 -40.580872
v 1.000000 -2.000000 -68.580872
v 2.000000 -2.000005 -40.580872
v 2.000000 -2.000000 -68.580872
v 2.000000 -0.000005 -40.580872
v 2.000000 0.000000 -70.580872
v 0.000000 0.000000 -70.580872
v 0.000000 -0.000005 -40.580872
v 0.000003 -64.000000 -70.580879
v 0.000000 0.000000 -70.580872
v 2.000003 -64.000000 -70.580879
v 2.000000 0.000000 -70.580872
v 2.000003 -62.000000 -68.580879
v 2.000000 -2.000000 -68.580872
v 1.000003 -62.000000 -68.580879
v 1.000000 -2.000000 -68.580872
v 1.000002 -47.827320 55.419121
v 1.000002 -47.827305 -36.580879
v 2.000002 -47.827320 55.419121
v 2.000002 -47.827305 -36.580879
v 2.000002 -46.172718 55.419121
v 2.000002 -46.172703 -36.580879
v 1.000002 -46.172718 55.419121
v 1.000002 -46.172703 -36.580879
v 1.000001 -31.172707 -36.580875
v 1.000001 -31.172722 55.419121
v 2.000001 -31.172707 -36.580875
v 2.000001 -31.172722 55.419121
v 2.000001 -32.827305 -36.580875
v 2.000001 -32.827320 55.419121
v 1.000001 -32.827305 -36.580875
v 1.000001 -32.827320 55.419121
v 1.000001 -16.172707 -36.580875
v 1.000001 -16.172722 55.419128
v 2.000001 -16.172707 -36.580875
v 2.000001 -16.172722 55.419128
v 2.000001 -17.827305 -36.580875
v 2.000001 -17.827320 55.419128
v 1.000001 -17.827305 -36.580875
v 1.000001 -17.827320 55.419128
v 1.000000 -2.000018 37.710129
v 1.000003 -62.000019 37.710121
v 1.500000 -2.000018 37.710129
v 1.500003 -62.000019 37.710121
v 1.500000 -2.000017 36.328125
v 1.500003 -62.000019 36.328117
v 1.000000 -2.000017 36.328125
v 1.000003 -62.000019 36.328117
v 1.000000 -2.000015 19.309830
v 1.000003 -62.000015 19.309822
v 1.500000 -2.000015 19.309830
v 1.500003 -62.000015 19.309822
v 1.500000 -2.000014 17.928429
v 1.500003 -62.000015 17.928421
v 1.000000 -2.000014 17.928429
v 1.000003 -62.000015 17.928421
v 1.000003 -62.000008 -18.871582
v 1.000000 -2.000008 -18.871571
v 1.500003 -62.000008 -18.871582
v 1.500000 -2.000008 -18.871571
v 1.500003 -62.000008 -17.490185
v 1.500000 -2.000009 -17.490173
v 1.000003 -62.000008 -17.490185
v 1.000000 -2.000009 -17.490173
v 0.000003 -64.000023 57.419121
v 2.000003 -64.000023 57.419121
v 0.000000 -0.000021 57.419128
v 2.000000 -0.000021 57.419128
v 2.000000 -2.000021 55.419128
v 2.000003 -62.000019 55.419121
v 1.000000 -2.000021 55.419128
v 1.000003 -62.000019 55.419121
v 0.999997 61.999996 -36.580860
v 1.000000 1.999995 -36.580872
v 1.999997 61.999996 -36.580860
v 2.000000 1.999995 -36.580872
v 2.000000 1.999995 -40.580872
v 1.999997 61.999996 -40.580864
v 0.999997 61.999996 -40.580864
v 1.000000 1.999995 -40.580872
v 0.999997 61.999996 -40.580864
v 0.999997 62.000000 -68.580864
v 1.999997 61.999996 -40.580864
v 1.999997 62.000000 -68.580864
v 1.999997 63.999996 -40.580864
v 1.999997 64.000000 -70.580864
v -0.000003 64.000000 -70.580864
v -0.000003 63.999996 -40.580864
v 0.000000 0.000000 -70.580872
v -0.000003 64.000000 -70.580864
v 2.000000 0.000000 -70.580872
v 1.999997 64.000000 -70.580864
v 2.000000 2.000000 -68.580872
v 1.999997 62.000000 -68.580864
v 1.000000 2.000000 -68.580872
v 0.999997 62.000000 -68.580864
v 0.999999 16.172680 55.419128
v 0.999999 16.172695 -36.580868
v 1.999999 16.172680 55.419128
v 1.999999 16.172695 -36.580868
v 1.999999 17.827278 55.419128
v 1.999999 17.827293 -36.580868
v 0.999999 17.827278 55.419128
v 0.999999 17.827293 -36.580868
v 0.999999 32.827297 -36.580868
v 0.999999 32.827282 55.419136
v 1.999999 32.827297 -36.580868
v 1.999999 32.827282 55.419136
v 1.999999 31.172695 -36.580868
v 1.999999 31.172680 55.419136
v 0.999999 31.172695 -36.580868
v 0.999999 31.172680 55.419136
v 0.999998 47.827297 -36.580864
v 0.999998 47.827282 55.419136
v 1.999998 47.827297 -36.580864
v 1.999998 47.827282 55.419136
v 1.999998 46.172695 -36.580864
v 1.999998 46.172680 55.419136
v 0.999998 46.172695 -36.580864
v 0.999998 46.172680 55.419136
v 0.999997 61.999981 37.710136
v 1.000000 1.999982 37.710129
v 1.499997 61.999981 37.710136
v 1.500000 1.999982 37.710129
v 1.499997 61.999981 36.328133
v 1.500000 1.999983 36.328125
v 0.999997 61.999981 36.328133
v 1.000000 1.999983 36.328125
v 0.999997 61.999985 19.309837
v 1.000000 1.999985 19.309830
v 1.499997 61.999985 19.309837
v 1.500000 1.999985 19.309830
v 1.499997 61.999985 17.928436
v 1.500000 1.999986 17.928429
v 0.999997 61.999985 17.928436
v 1.000000 1.999986 17.928429
v 1.000000 1.999992 -18.871571
v 0.999997 61.999992 -18.871559
v 1.500000 1.999992 -18.871571
v 1.499997 61.999992 -18.871559
v 1.500000 1.999991 -17.490173
v 1.499997 61.999992 -17.490162
v 1.000000 1.999991 -17.490173
v 0.999997 61.999992 -17.490162
v 0.000003 -64.000000 -70.580879
v 2.000003 -64.000000 -70.580879
v 0.000003 -64.000008 -40.580879
v 2.000003 -64.000008 -40.580879
v 2.000003 -62.000000 -68.580879
v 2.000003 -62.000004 -40.580879
v 1.000003 -62.000004 -40.580879
v 1.000003 -62.000000 -68.580879
v 1.000000 1.999989 -0.471573
v 0.999997 61.999989 -0.471565
v 1.500000 1.999989 -0.471573
v 1.499997 61.999989 -0.471565
v 1.500000 1.999988 0.909828
v 1.499997 61.999989 0.909836
v 1.000000 1.999988 0.909828
v 0.999997 61.999989 0.909836
v 0.000000 -0.000021 57.419128
v 2.000000 -0.000021 57.419128
v -0.000003 63.999981 57.419144
v 1.999997 63.999981 57.419144
v 1.999997 61.999981 55.419136
v 2.000000 1.999979 55.419128
v 0.999997 61.999981 55.419136
v 1.000000 1.999979 55.419128
v 0.000000 0.000000 -70.580872
v 2.000000 0.000000 -70.580872
v 0.000000 -0.000005 -40.580872
v 2.000000 -0.000005 -40.580872
v 2.000000 2.000000 -68.580872
v 2.000000 1.999995 -40.580872
v 1.000000 1.999995 -40.580872
v 1.000000 2.000000 -68.580872
vt 0.4968 -0.0023
vt 0.0050 -0.0023
vt 0.4968 -0.7564
vt 0.0050 -0.7564
vt 0.9345 -0.9914
vt 0.9345 -0.9611
vt 0.9193 -0.9914
vt 0.9042 -0.2486
vt 0.9042 -0.9914
vt 0.9193 -0.2486
vt 0.9345 -0.2638
vt 0.9421 -0.9611
vt 0.9421 -0.2638
vt 0.9421 -0.2638
vt 0.9345 -0.2638
vt 0.9421 -0.9611
vt 0.9345 -0.9611
vt 0.9193 -0.2486
vt 0.9193 -0.9914
vt 0.9345 -0.9914
vt 0.9634 -0.9905
vt 0.9786 -0.9905
vt 0.9634 -0.9602
vt 0.9559 -0.9602
vt 0.9559 -0.2629
vt 0.9634 -0.2629
vt 0.9786 -0.2478
vt 0.9938 -0.2478
vt 0.9938 -0.9905
vt 0.9559 -0.9602
vt 0.9634 -0.9602
vt 0.9559 -0.2629
vt 0.9634 -0.2629
vt 0.9786 -0.2478
vt 0.9786 -0.9905
vt 0.9634 -0.9905
vt 0.9914 -0.0035
vt 0.5086 -0.0035
vt 0.9914 -0.2288
vt 0.5086 -0.2288
vt 0.4968 -0.0023
vt 0.0050 -0.0023
vt 0.4968 -0.7564
vt 0.0050 -0.7564
vt 0.5055 -0.2303
vt 0.9945 -0.2303
vt 0.5055 -0.0021
vt 0.9945 -0.0021
vt 0.6148 -0.8264
vt 0.6148 -0.2503
vt 0.6100 -0.8264
vt 0.6100 -0.2503
vt 0.5967 -0.8264
vt 0.5967 -0.2503
vt 0.5919 -0.8264
vt 0.5919 -0.2503
vt 0.7850 -0.2644
vt 0.7850 -0.7674
vt 0.7934 -0.2644
vt 0.7934 -0.7674
vt 0.8269 -0.7674
vt 0.8269 -0.2644
vt 0.8353 -0.2644
vt 0.8353 -0.7674
vt 0.7169 -0.5094
vt 0.7169 -0.2746
vt 0.7085 -0.5094
vt 0.7085 -0.2746
vt 0.6918 -0.5094
vt 0.6918 -0.2579
vt 0.6750 -0.2579
vt 0.6750 -0.5094
vt 0.7330 -0.2457
vt 0.7330 -0.7822
vt 0.7497 -0.2457
vt 0.7497 -0.7822
vt 0.7665 -0.2625
vt 0.7665 -0.7654
vt 0.7749 -0.2625
vt 0.7749 -0.7654
vt 0.8905 -0.8693
vt 0.0071 -0.8693
vt 0.8905 -0.8789
vt 0.0071 -0.8789
vt 0.8905 -0.8948
vt 0.0071 -0.8948
vt 0.8905 -0.9044
vt 0.0071 -0.9044
vt 0.0074 -0.9490
vt 0.8908 -0.9490
vt 0.0074 -0.9394
vt 0.8908 -0.9394
vt 0.0074 -0.9235
vt 0.8908 -0.9235
vt 0.0074 -0.9139
vt 0.8908 -0.9139
vt 0.0071 -0.9938
vt 0.8905 -0.9938
vt 0.0071 -0.9842
vt 0.8905 -0.9842
vt 0.0071 -0.9683
vt 0.8905 -0.9683
vt 0.0071 -0.9587
vt 0.8905 -0.9587
vt 0.0066 -0.8562
vt 0.5827 -0.8562
vt 0.0066 -0.8514
vt 0.5827 -0.8514
vt 0.0066 -0.8381
vt 0.5827 -0.8381
vt 0.0066 -0.8333
vt 0.5827 -0.8333
vt 0.0048 -0.8166
vt 0.5810 -0.8166
vt 0.0048 -0.8118
vt 0.5810 -0.8118
vt 0.0048 -0.7985
vt 0.5810 -0.7985
vt 0.0048 -0.7937
vt 0.5810 -0.7937
vt 0.6533 -0.8269
vt 0.6533 -0.2508
vt 0.6485 -0.8269
vt 0.6485 -0.2508
vt 0.6353 -0.8269
vt 0.6353 -0.2508
vt 0.6305 -0.8269
vt 0.6305 -0.2508
vt 0.8859 -0.2419
vt 0.8691 -0.2419
vt 0.8859 -0.7784
vt 0.8691 -0.7784
vt 0.8523 -0.7617
vt 0.8523 -0.2587
vt 0.8440 -0.7617
vt 0.8440 -0.2587
vt 0.7850 -0.2644
vt 0.7850 -0.7674
vt 0.7934 -0.2644
vt 0.7934 -0.7674
vt 0.8269 -0.7674
vt 0.8269 -0.2644
vt 0.8353 -0.2644
vt 0.8353 -0.7674
vt 0.7169 -0.5094
vt 0.7169 -0.2746
vt 0.7085 -0.5094
vt 0.7085 -0.2746
vt 0.6918 -0.5094
vt 0.6918 -0.2579
vt 0.6750 -0.2579
vt 0.6750 -0.5094
vt 0.7330 -0.2457
vt 0.7330 -0.7822
vt 0.7497 -0.2457
vt 0.7497 -0.7822
vt 0.7665 -0.2625
vt 0.7665 -0.7654
vt 0.7749 -0.2625
vt 0.7749 -0.7654
vt 0.8905 -0.8693
vt 0.0071 -0.8693
vt 0.8905 -0.8789
vt 0.0071 -0.8789
vt 0.8905 -0.8948
vt 0.0071 -0.8948
vt 0.8905 -0.9044
vt 0.0071 -0.9044
vt 0.0074 -0.9490
vt 0.8908 -0.9490
vt 0.0074 -0.9394
vt 0.8908 -0.9394
vt 0.0074 -0.9235
vt 0.8908 -0.9235
vt 0.0074 -0.9139
vt 0.8908 -0.9139
vt 0.0071 -0.9938
vt 0.8905 -0.9938
vt 0.0071 -0.9842
vt 0.8905 -0.9842
vt 0.0071 -0.9683
vt 0.8905 -0.9683
vt 0.0071 -0.9587
vt 0.8905 -0.9587
vt 0.0066 -0.8562
vt 0.5827 -0.8562
vt 0.0066 -0.8514
vt 0.5827 -0.8514
vt 0.0066 -0.8381
vt 0.5827 -0.8381
vt 0.0066 -0.8333
vt 0.5827 -0.8333
vt 0.0048 -0.8166
vt 0.5810 -0.8166
vt 0.0048 -0.8118
vt 0.5810 -0.8118
vt 0.0048 -0.7985
vt 0.5810 -0.7985
vt 0.0048 -0.7937
vt 0.5810 -0.7937
vt 0.6533 -0.8269
vt 0.6533 -0.2508
vt 0.6485 -0.8269
vt 0.6485 -0.2508
vt 0.6353 -0.8269
vt 0.6353 -0.2508
vt 0.6305 -0.8269
vt 0.6305 -0.2508
vt 0.7182 -0.5201
vt 0.7015 -0.5201
vt 0.7182 -0.7716
vt 0.7015 -0.7716
vt 0.6847 -0.5368
vt 0.6847 -0.7716
vt 0.6763 -0.7716
vt 0.6763 -0.5368
vt 0.6148 -0.8264
vt 0.6148 -0.2503
vt 0.6100 -0.8264
vt 0.6100 -0.2503
vt 0.5967 -0.8264
vt 0.5967 -0.2503
vt 0.5919 -0.8264
vt 0.5919 -0.2503
vt 0.8859 -0.2419
vt 0.8691 -0.2419
vt 0.8859 -0.7784
vt 0.8691 -0.7784
vt 0.8523 -0.7617
vt 0.8523 -0.2587
vt 0.8440 -0.7617
vt 0.8440 -0.2587
vt 0.7182 -0.5201
vt 0.7015 -0.5201
vt 0.7182 -0.7716
vt 0.7015 -0.7716
vt 0.6847 -0.5368
vt 0.6847 -0.7716
vt 0.6763 -0.7716
vt 0.6763 -0.5368
vn 0.5774 -0.5773 -0.5774
vn 0.5774 0.5774 -0.5773
vn 0.5774 -0.5774 0.5773
vn 0.5774 0.5773 0.5774
vn 0.9045 0.3015 -0.3015
vn 0.9045 0.3015 0.3015
vn 0.7071 -0.7071 -0.0000
vn 0.0002 -0.7071 0.7071
vn 0.0000 -1.0000 -0.0000
vn 0.5773 -0.5774 0.5773
vn 0.5774 0.5774 0.5773
vn 0.5773 0.5774 -0.5774
vn 0.7071 0.0002 0.7071
vn 1.0000 0.0000 0.0000
vn 0.9045 -0.3015 -0.3015
vn 0.7071 0.7071 0.0000
vn 0.9045 -0.3015 0.3015
vn 0.5773 -0.5774 0.5774
vn 0.5774 -0.5774 -0.5773
vn 0.5773 0.5774 0.5773
vn 0.0000 0.7071 0.7071
vn 0.0000 1.0000 0.0000
vn 0.7071 0.0000 0.7071
vn 0.0000 0.0000 -1.0000
vn 0.7071 0.0000 -0.7071
vn 0.0000 -0.0000 1.0000
vn 0.5773 0.5774 0.5774
vn 0.9045 0.3016 0.3016
vn 0.9046 0.3013 -0.3014
vn 0.5773 -0.5774 -0.5774
vn 0.5774 0.5773 -0.5774
vn 0.9045 -0.3016 -0.3016
vn 0.5773 0.5773 -0.5774
vn -0.0003 -0.7071 -0.7071
vn 0.5773 -0.5774 -0.5773
vn 0.0000 -0.7071 0.7071
vn 0.5773 -0.5773 0.5774
vn 0.9045 -0.3016 0.3016
vn 0.0002 0.7071 -0.7071
vn 0.0000 0.7071 -0.7071
vn 0.0000 -0.7071 -0.7071
vn 0.0002 0.7071 0.7071
usemtl shoji_wall_screen01
s 1
f 1/1/1 2/2/2 3/3/3
f 4/4/4 3/3/3 2/2/2
f 5/5/5 6/6/6 7/7/7
f 8/8/8 9/9/9 10/10/10
f 7/7/7 10/10/10 9/9/9
f 7/7/7 6/6/6 10/10/10
f 11/11/5 10/10/10 6/6/6
f 6/6/6 12/12/11 11/11/5
f 13/13/12 11/11/5 12/12/11
f 14/14/12 15/15/5 16/16/11
f 17/17/6 16/16/11 15/15/5
f 15/15/5 18/18/13 17/17/6
f 19/19/14 17/17/6 18/18/13
f 20/20/5 17/17/6 19/19/14
f 21/21/15 22/22/16 23/23/17
f 24/24/18 23/23/17 25/25/19
f 26/26/15 25/25/19 23/23/17
f 26/26/15 23/23/17 27/27/20
f 22/22/16 27/27/20 23/23/17
f 27/27/20 22/22/16 28/28/21
f 29/29/22 28/28/21 22/22/16
f 30/30/18 31/31/17 32/32/19
f 33/33/15 32/32/19 31/31/17
f 33/33/15 31/31/17 34/34/23
f 35/35/14 34/34/23 31/31/17
f 36/36/15 35/35/14 31/31/17
f 37/37/4 38/38/3 39/39/2
f 40/40/1 39/39/2 38/38/3
f 41/41/1 42/42/2 43/43/3
f 44/44/4 43/43/3 42/42/2
f 45/45/4 46/46/3 47/47/2
f 48/48/1 47/47/2 46/46/3
f 49/49/24 50/50/24 51/51/25
f 52/52/25 51/51/25 50/50/24
f 51/51/25 52/52/25 53/53/23
f 54/54/23 53/53/23 52/52/25
f 53/53/23 54/54/23 55/55/26
f 56/56/26 55/55/26 54/54/23
f 57/57/18 58/58/27 59/59/17
f 60/60/28 59/59/17 58/58/27
f 60/60/28 61/61/29 59/59/17
f 62/62/15 59/59/17 61/61/29
f 62/62/15 61/61/29 63/63/30
f 64/64/31 63/63/30 61/61/29
f 65/65/19 66/66/18 67/67/32
f 68/68/17 67/67/32 66/66/18
f 67/67/32 68/68/17 69/69/14
f 70/70/33 69/69/14 68/68/17
f 70/70/33 71/71/24 69/69/14
f 72/72/22 69/69/14 71/71/24
f 73/73/34 74/74/24 75/75/35
f 76/76/33 75/75/35 74/74/24
f 75/75/35 76/76/33 77/77/6
f 78/78/17 77/77/6 76/76/33
f 77/77/6 78/78/17 79/79/27
f 80/80/18 79/79/27 78/78/17
f 81/81/9 82/82/9 83/83/7
f 84/84/7 83/83/7 82/82/9
f 83/83/7 84/84/7 85/85/16
f 86/86/16 85/85/16 84/84/7
f 85/85/16 86/86/16 87/87/22
f 88/88/22 87/87/22 86/86/16
f 89/89/22 90/90/22 91/91/16
f 92/92/16 91/91/16 90/90/22
f 91/91/16 92/92/16 93/93/7
f 94/94/7 93/93/7 92/92/16
f 93/93/7 94/94/7 95/95/9
f 96/96/9 95/95/9 94/94/7
f 97/97/22 98/98/22 99/99/16
f 100/100/16 99/99/16 98/98/22
f 99/99/16 100/100/16 101/101/7
f 102/102/7 101/101/7 100/100/16
f 101/101/7 102/102/7 103/103/9
f 104/104/9 103/103/9 102/102/7
f 105/105/26 106/106/26 107/107/23
f 108/108/23 107/107/23 106/106/26
f 107/107/23 108/108/23 109/109/25
f 110/110/25 109/109/25 108/108/23
f 109/109/25 110/110/25 111/111/24
f 112/112/24 111/111/24 110/110/25
f 113/113/26 114/114/26 115/115/23
f 116/116/23 115/115/23 114/114/26
f 115/115/23 116/116/23 117/117/25
f 118/118/25 117/117/25 116/116/23
f 117/117/25 118/118/25 119/119/24
f 120/120/24 119/119/24 118/118/25
f 121/121/24 122/122/24 123/123/25
f 124/124/25 123/123/25 122/122/24
f 123/123/25 124/124/25 125/125/23
f 126/126/23 125/125/23 124/124/25
f 125/125/23 126/126/23 127/127/26
f 128/128/26 127/127/26 126/126/23
f 129/129/36 130/130/37 131/131/26
f 132/132/23 131/131/26 130/130/37
f 132/132/23 130/130/37 133/133/15
f 134/134/5 133/133/15 130/130/37
f 133/133/15 134/134/5 135/135/30
f 136/136/31 135/135/30 134/134/5
f 137/137/18 138/138/27 139/139/38
f 140/140/6 139/139/38 138/138/27
f 140/140/6 141/141/5 139/139/38
f 142/142/15 139/139/38 141/141/5
f 142/142/15 141/141/5 143/143/30
f 144/144/31 143/143/30 141/141/5
f 145/145/19 146/146/18 147/147/32
f 148/148/17 147/147/32 146/146/18
f 147/147/32 148/148/17 149/149/16
f 150/150/33 149/149/16 148/148/17
f 150/150/33 151/151/39 149/149/16
f 152/152/22 149/149/16 151/151/39
f 153/153/24 154/154/40 155/155/35
f 156/156/33 155/155/35 154/154/40
f 155/155/35 156/156/33 157/157/6
f 158/158/17 157/157/6 156/156/33
f 157/157/6 158/158/17 159/159/27
f 160/160/18 159/159/27 158/158/17
f 161/161/9 162/162/9 163/163/7
f 164/164/7 163/163/7 162/162/9
f 163/163/7 164/164/7 165/165/16
f 166/166/16 165/165/16 164/164/7
f 165/165/16 166/166/16 167/167/22
f 168/168/22 167/167/22 166/166/16
f 169/169/22 170/170/22 171/171/16
f 172/172/16 171/171/16 170/170/22
f 171/171/16 172/172/16 173/173/7
f 174/174/7 173/173/7 172/172/16
f 173/173/7 174/174/7 175/175/9
f 176/176/9 175/175/9 174/174/7
f 177/177/22 178/178/22 179/179/16
f 180/180/16 179/179/16 178/178/22
f 179/179/16 180/180/16 181/181/7
f 182/182/7 181/181/7 180/180/16
f 181/181/7 182/182/7 183/183/9
f 184/184/9 183/183/9 182/182/7
f 185/185/26 186/186/26 187/187/23
f 188/188/23 187/187/23 186/186/26
f 187/187/23 188/188/23 189/189/25
f 190/190/25 189/189/25 188/188/23
f 189/189/25 190/190/25 191/191/24
f 192/192/24 191/191/24 190/190/25
f 193/193/26 194/194/26 195/195/23
f 196/196/23 195/195/23 194/194/26
f 195/195/23 196/196/23 197/197/25
f 198/198/25 197/197/25 196/196/23
f 197/197/25 198/198/25 199/199/24
f 200/200/24 199/199/24 198/198/25
f 201/201/24 202/202/24 203/203/25
f 204/204/25 203/203/25 202/202/24
f 203/203/25 204/204/25 205/205/23
f 206/206/23 205/205/23 204/204/25
f 205/205/23 206/206/23 207/207/26
f 208/208/26 207/207/26 206/206/23
f 209/209/41 210/210/30 211/211/9
f 212/212/7 211/211/9 210/210/30
f 210/210/30 213/213/6 212/212/7
f 214/214/5 212/212/7 213/213/6
f 214/214/5 213/213/6 215/215/12
f 216/216/11 215/215/12 213/213/6
f 217/217/24 218/218/24 219/219/25
f 220/220/25 219/219/25 218/218/24
f 219/219/25 220/220/25 221/221/23
f 222/222/23 221/221/23 220/220/25
f 221/221/23 222/222/23 223/223/26
f 224/224/26 223/223/26 222/222/23
f 225/225/26 226/226/23 227/227/42
f 228/228/20 227/227/42 226/226/23
f 228/228/20 226/226/23 229/229/15
f 230/230/5 229/229/15 226/226/23
f 229/229/15 230/230/5 231/231/30
f 232/232/31 231/231/30 230/230/5
f 233/233/24 234/234/30 235/235/22
f 236/236/14 235/235/22 234/234/30
f 234/234/30 237/237/6 236/236/14
f 238/238/5 236/236/14 237/237/6
f 238/238/5 237/237/6 239/239/12
f 240/240/11 239/239/12 237/237/6
